<?xml version="1.0" encoding="UTF-8" standalone="no"?>
<svg
   xmlns:dc="http://purl.org/dc/elements/1.1/"
   xmlns:cc="http://creativecommons.org/ns#"
   xmlns:rdf="http://www.w3.org/1999/02/22-rdf-syntax-ns#"
   xmlns:svg="http://www.w3.org/2000/svg"
   xmlns="http://www.w3.org/2000/svg"
   xml:space="preserve"
   style="enable-background:new 0 0 460 460;"
   viewBox="0 0 460 460"
   y="0px"
   x="0px"
   id="Capa_1"
   version="1.1"><metadata
   id="metadata939"><rdf:RDF><cc:Work
       rdf:about=""><dc:format>image/svg+xml</dc:format><dc:type
         rdf:resource="http://purl.org/dc/dcmitype/StillImage" /><dc:title></dc:title></cc:Work></rdf:RDF></metadata><defs
   id="defs937" />
<g
   id="XMLID_1349_">
	<rect
   height="50"
   width="60"
   style="fill:#A78966;"
   y="390"
   x="200"
   id="XMLID_1350_" />
	<path
   d="M230,20c-28.325,0-53.193,14.734-67.409,36.943C152.634,52.494,141.611,50,130,50   c-44.183,0-80,35.817-80,80c0,7.223,0.974,14.216,2.768,20.872C21.346,167.863,0,201.104,0,239.333   c0,37.875,20.955,70.851,51.9,87.982C59.815,363.17,91.765,390,130,390h100V20z M110,310c-11.046,0-20-8.954-20-20   c0-11.046,8.954-20,20-20s20,8.954,20,20C130,301.046,121.046,310,110,310z M170,350c-11.046,0-20-8.954-20-20   c0-11.046,8.954-20,20-20s20,8.954,20,20C190,341.046,181.046,350,170,350z"
   style="fill:#3FA45A;"
   id="XMLID_1357_" />
	<path
   d="M407.034,151.569C408.952,144.705,410,137.477,410,130c0-44.183-35.817-80-80-80   c-11.611,0-22.634,2.494-32.591,6.943C283.193,34.734,258.325,20,230,20v370h100c38.15,0,70.041-26.712,78.045-62.448   C439.009,310.557,460,277.648,460,239.833C460,201.609,438.55,168.399,407.034,151.569z M330,270c-11.046,0-20-8.954-20-20   c0-11.046,8.954-20,20-20s20,8.954,20,20C350,261.046,341.046,270,330,270z"
   style="fill:#317F46;"
   id="XMLID_1366_" />
	<circle
   r="20"
   cy="330"
   cx="170"
   style="fill:#317F46;"
   id="XMLID_1371_" />
	<circle
   r="20"
   cy="250"
   cx="330"
   style="fill:#3FA45A;"
   id="XMLID_1374_" />
	<circle
   r="20"
   cy="290"
   cx="110"
   style="fill:#317F46;"
   id="XMLID_1377_" />
</g>
</svg>
